<svg height="512pt" viewBox="-4 0 511 512" width="512pt" xmlns="http://www.w3.org/2000/svg"><path d="m90.949219 154.464844c-3.863281-1.503906-8.210938.40625-9.710938 4.265625-6.367187 16.351562-17.316406 49.570312-19.085937 88.332031-1.804688 39.570312 6.453125 73.054688 24.546875 99.515625 30.082031 44 85.847656 66.308594 165.746093 66.308594 81.886719 0 138.375-23.398438 167.882813-69.546875 40.84375-63.867188 17.921875-154.078125-2.058594-197.316406-19.839843-42.929688-51.96875-72.804688-85.941406-79.914063-26.839844-5.617187-54.101563 3.003906-78.835937 24.929687-.605469.539063-1.488282.539063-2.097657 0-23.589843-20.914062-49.613281-29.765624-75.257812-25.59375-30.828125 5.011719-60.558594 28.792969-81.570313 65.238282-2.070312 3.585937-.835937 8.175781 2.75 10.242187 3.589844 2.070313 8.175782.839844 10.242188-2.75 18.753906-32.523437 44.625-53.640625 70.984375-57.925781 21.34375-3.472656 42.507812 3.9375 62.902343 22.015625 6.269532 5.558594 15.726563 5.558594 21.996094 0 21.34375-18.921875 43.484375-26.144531 65.816406-21.472656 29.351563 6.140625 57.535157 32.878906 75.394532 71.523437 4.226562 9.148438 18.324218 42.246094 22.304687 84.214844 3.761719 39.640625-2.722656 72.855469-19.265625 98.726562-26.574218 41.554688-78.808594 62.628907-155.25 62.628907-74.644531 0-126.242187-20.113281-153.359375-59.777344-33.636719-49.195313-24.050781-122.105469-3.867187-173.933594 1.503906-3.859375-.40625-8.207031-4.265625-9.710937zm0 0"/><path d="m172.125 239.050781c4.140625 0 7.5-3.359375 7.5-7.5v-14.535156c0-4.144531-3.359375-7.5-7.5-7.5-4.144531 0-7.5 3.355469-7.5 7.5v14.535156c0 4.140625 3.355469 7.5 7.5 7.5zm0 0"/><path d="m332.761719 209.515625c-4.144531 0-7.5 3.355469-7.5 7.5v14.535156c0 4.140625 3.355469 7.5 7.5 7.5 4.140625 0 7.5-3.359375 7.5-7.5v-14.535156c0-4.144531-3.359375-7.5-7.5-7.5zm0 0"/><path d="m252.441406 249.164062c7.792969 0 15.179688-1.59375 21.808594-4.449218 6.957031-2.996094 4.835938-13.375-2.738281-13.375h-38.136719c-7.578125 0-9.695312 10.378906-2.738281 13.375 6.628906 2.855468 14.015625 4.449218 21.804687 4.449218zm0 0"/><path d="m222.546875 261.53125c-2.726563-3.117188-7.464844-3.4375-10.585937-.710938-3.117188 2.726563-3.4375 7.464844-.710938 10.582032 5.792969 6.628906 14.328125 10.429687 23.421875 10.429687 6.46875 0 12.652344-1.933593 17.769531-5.433593 5.121094 3.5 11.300782 5.433593 17.773438 5.433593 9.089844 0 17.625-3.800781 23.417968-10.429687 2.726563-3.117188 2.40625-7.855469-.710937-10.582032-3.117187-2.726562-7.855469-2.40625-10.582031.710938-2.945313 3.367188-7.363282 5.300781-12.125 5.300781-4.761719 0-9.183594-1.933593-12.125-5.300781-1.425782-1.597656-3.503906-2.554688-5.648438-2.554688-2.136718 0-4.242187.941407-5.644531 2.554688-2.945313 3.367188-7.363281 5.300781-12.125 5.300781-4.765625 0-9.183594-1.933593-12.125-5.300781zm0 0"/><path d="m158.996094 243.277344h-14.992188c-4.140625 0-7.5 3.355468-7.5 7.5 0 4.140625 3.359375 7.5 7.5 7.5h14.992188c4.140625 0 7.5-3.359375 7.5-7.5 0-4.144532-3.359375-7.5-7.5-7.5zm0 0"/><path d="m345.890625 258.277344h14.992187c4.140626 0 7.5-3.359375 7.5-7.5 0-4.144532-3.359374-7.5-7.5-7.5h-14.992187c-4.144531 0-7.5 3.355468-7.5 7.5 0 4.140625 3.355469 7.5 7.5 7.5zm0 0"/><path d="m4.203125 256.554688c.042969 27.125 4.480469 52.214843 13.183594 74.566406 9.515625 24.429687 23.929687 44.984375 42.847656 61.097656 26.554687 22.617188 57.171875 39.671875 86.785156 56.164062 15.328125 8.535157 31.171875 17.359376 46.097657 26.777344 12.046874 7.601563 25.941406 16.890625 37.671874 28.171875 5.808594 5.589844 13.5 8.667969 21.652344 8.667969 8.15625 0 15.84375-3.078125 21.65625-8.664062 11.734375-11.285157 25.628906-20.574219 37.671875-28.175782 14.921875-9.414062 30.761719-18.238281 46.082031-26.773437 24.34375-13.558594 49.515626-27.582031 72.335938-44.648438 3.316406-2.480469 3.996094-7.183593 1.515625-10.5-2.480469-3.316406-7.183594-3.996093-10.5-1.511719-22.015625 16.464844-46.742187 30.238282-70.652344 43.558594-15.496093 8.632813-31.519531 17.558594-46.785156 27.191406-12.683594 8.003907-27.363281 17.832032-40.066406 30.046876-3 2.886718-7 4.476562-11.253907 4.476562-4.257812 0-8.253906-1.589844-11.257812-4.476562-12.703125-12.214844-27.378906-22.042969-40.0625-30.046876-15.273438-9.636718-31.304688-18.566406-46.804688-27.199218-28.976562-16.136719-58.9375-32.824219-84.359374-54.476563-41.847657-35.644531-50.699219-87.25-50.757813-124.269531-.050781-34.769531 7.535156-71.152344 21.933594-105.277344 17.933593-42.511718 46.226562-79.8125 86.261719-103.570312 35.71875-21.242188 78.988281-32.683594 125.042968-32.683594 46.058594 0 89.328125 11.445312 125.050782 32.683594 26.894531 15.992187 49.550781 38.703125 66.230468 65.121094 24.195313 38.292968 39.886719 86.875 41.765625 133.84375 2.078125 52.015624-13.050781 97.039062-42.597656 126.769531-2.917969 2.9375-2.902344 7.6875.035156 10.605469 2.9375 2.917968 7.6875 2.90625 10.605469-.03125 17.035156-17.140626 29.6875-38.398438 37.609375-63.179688 7.269531-22.734375 10.410156-47.890625 9.335937-74.761719-1.238281-30.917969-8.019531-62.710937-19.714843-92.773437 15.308593-24.9375 23.261719-50.339844 23.613281-75.5625.308594-22.152344-5.351562-39.421875-10.15625-50.011719-4.117188-9.078125-12.355469-15.527344-22.03125-17.253906-5.480469-.976563-11.203125-1.472657-17.011719-1.472657-33.957031 0-63.9375 16.554688-74.574219 23.179688-37.121093-20.917969-81.328124-32.15625-128.160156-32.15625-46.832031 0-91.035156 11.238281-128.15625 32.15625-10.636718-6.621094-40.617187-23.179688-74.574218-23.179688-5.808594 0-11.53125.496094-17.011719 1.472657-9.675781 1.730469-17.914063 8.179687-22.03125 17.257812-4.804688 10.585938-10.464844 27.855469-10.15625 50.011719.347656 25.222656 8.308593 50.628906 23.621093 75.570312-13.097656 33.664063-19.980468 69.171876-19.929687 103.265626zm416.738281-195.199219c8.828125-2.792969 17.207032-4.207031 25.027344-4.207031h.089844c2.777344.003906 5.265625 1.910156 6.050781 4.628906 2.589844 8.996094 4.507813 22.21875 1.449219 38.5625-6.15625-9.300782-12.929688-18.203125-20.386719-26.503906-3.882813-4.324219-7.972656-8.523438-12.230469-12.480469zm-25.820312-20.28125c12.519531-6.84375 35.386718-17.097657 60.054687-17.097657 4.925781 0 9.765625.417969 14.375 1.238282 4.8125.859375 8.929688 4.105468 11.007813 8.6875 8.394531 18.507812 17.75 55.222656-7.160156 102.097656-.089844-.191406-5.90625-12.140625-9.015626-17.769531 8.609376-26.078125 5.984376-47.242188 2.136719-60.605469-2.617187-9.097656-11.027343-15.460938-20.453125-15.476562h-.097656c-11.953125 0-24.804688 2.699218-38.25 8.011718-4.085938-3.171875-8.292969-6.210937-12.597656-9.085937zm-342.34375 20.703125c.785156-2.722656 3.273437-4.625 6.039062-4.628906h.101563c7.816406 0 16.199219 1.414062 25.027343 4.207031-4.699218 4.367187-9.171874 9.003906-13.417968 13.808593-6.792969 7.683594-13.21875 16.085938-19.207032 25.132813-3.046874-16.320313-1.128906-29.53125 1.457032-38.519531zm-28.449219-27.875c2.078125-4.578125 6.191406-7.828125 11.003906-8.683594 4.613281-.824219 9.449219-1.242188 14.378907-1.242188 24.570312 0 47.488281 10.265626 60.035156 17.109376-.324219.21875-8.808594 6.144531-12.582032 9.078124-13.441406-5.3125-26.292968-8.015624-38.246093-8.015624h-.109375c-9.417969.015624-17.824219 6.378906-20.445313 15.480468-3.84375 13.351563-6.46875 34.503906 2.128907 60.570313-3.0625 5.546875-5.964844 11.292969-8.71875 17.199219-.09375.203124-.191407.398437-.285157.601562-24.910156-46.875-15.554687-83.589844-7.160156-102.097656zm0 0"/></svg>